<?xml version="1.0" encoding="utf-8"?>
<!-- Generator: Adobe Illustrator 28.2.0, SVG Export Plug-In . SVG Version: 6.00 Build 0)  -->
<svg version="1.1" id="Слой_1" xmlns="http://www.w3.org/2000/svg" xmlns:xlink="http://www.w3.org/1999/xlink" x="0px" y="0px"
	 viewBox="0 0 2000 2000" style="enable-background:new 0 0 2000 2000;" xml:space="preserve">
<style type="text/css">
	.st0{fill:#2A343E;}
	.st1{clip-path:url(#SVGID_00000035526308835212968520000015415145380078407062_);fill:#1B2128;}
	.st2{clip-path:url(#SVGID_00000025424475156379044300000008359052424275768506_);fill:#1B2128;}
	.st3{clip-path:url(#SVGID_00000163760334319032537010000005798675655951670438_);fill:#476D87;}
	.st4{clip-path:url(#SVGID_00000163760334319032537010000005798675655951670438_);fill:#FFFFFF;}
	.st5{clip-path:url(#SVGID_00000001655442422538752520000002789392910785556352_);fill:#476D87;}
	.st6{clip-path:url(#SVGID_00000001655442422538752520000002789392910785556352_);fill:#FFFFFF;}
	.st7{fill:none;stroke:#FFFFFF;stroke-width:38;stroke-miterlimit:10;}
	.st8{fill:#FFFFFF;}
	.st9{fill:none;stroke:#1C2228;stroke-width:38;stroke-miterlimit:10;}
</style>
<rect class="st0" width="2000" height="2000"/>
<g>
	<g id="_x3C_Зеркальный_повтор_x3E__00000012431756429363510790000008930323781450695829_">
		<g>
			<defs>
				<rect id="SVGID_1_" x="265.5" y="221" width="739.5" height="1420"/>
			</defs>
			<clipPath id="SVGID_00000116229433564177210320000004067742483739315383_">
				<use xlink:href="#SVGID_1_"  style="overflow:visible;"/>
			</clipPath>
			<path style="clip-path:url(#SVGID_00000116229433564177210320000004067742483739315383_);fill:#1B2128;" d="M369,520l636-299
				l8,1418l-54,2V276L291,644l187,52l2,45l-214.5,88.9v89.8L481.9,964v51l-197.6,76.7l38,112.4L486,1208v95l-93.5,28.5
				c53.3,80.5,127.6,152,223.7,214.3L614,1391l142,27l2.1,196.7h39.3V1408l161.6-49v-202l-351,101v-142l152,22l-2,111l41-4v-170
				l160-45V853L608,978V822l166,45l-4.1,97H811V791l148-39V549L614,694V552l162,52l-2,47l35-12V513l150-46V276L344.5,563.9L369,520z
				"/>
		</g>
	</g>
	<g id="_x3C_Зеркальный_повтор_x3E__00000029036953053529641990000017648906134317482391_">
		<g>
			<defs>
				<rect id="SVGID_00000080900832811437673290000009894265234668693936_" x="1005" y="221" width="739.5" height="1420"/>
			</defs>
			<clipPath id="SVGID_00000021813291612863206970000013833916121642820270_">
				<use xlink:href="#SVGID_00000080900832811437673290000009894265234668693936_"  style="overflow:visible;"/>
			</clipPath>
			<path style="clip-path:url(#SVGID_00000021813291612863206970000013833916121642820270_);fill:#1B2128;" d="M1641,520l-636-299
				l-8,1418l54,2V276l668,368l-187,52l-2,45l214.5,88.9v89.8L1528.1,964v51l197.6,76.7l-38,112.4L1524,1208v95l93.5,28.5
				c-53.3,80.5-127.6,152-223.7,214.3l2.2-154.8l-142,27l-2.1,196.7h-39.3V1408l-161.6-49v-202l351,101v-142l-152,22l2,111l-41-4
				v-170l-160-45V853l351,125V822l-166,45l4.1,97H1199V791l-148-39V549l345,145V552l-162,52l2,47l-35-12V513l-150-46V276
				l614.5,287.9L1641,520z"/>
		</g>
	</g>
</g>
<g>
	<g id="_x3C_Зеркальный_повтор_x3E__00000061430182099277493560000011747268680325486227_">
		<g>
			<defs>
				<rect id="SVGID_00000155140012572765887850000014543469174802645411_" x="1005.3" y="267.4" width="752.7" height="1395.6"/>
			</defs>
			<clipPath id="SVGID_00000101810618681605334730000009558539454021642149_">
				<use xlink:href="#SVGID_00000155140012572765887850000014543469174802645411_"  style="overflow:visible;"/>
			</clipPath>
			<path style="clip-path:url(#SVGID_00000101810618681605334730000009558539454021642149_);fill:#476D87;" d="M1062,286v57.9
				L1453,525v188.6l41,19.4c0.7-81.3,1.3-162.7,2-244C1351.3,421.3,1206.7,353.7,1062,286z"/>
			<path style="clip-path:url(#SVGID_00000101810618681605334730000009558539454021642149_);fill:#FFFFFF;" d="M1064,585"/>
			<polygon style="clip-path:url(#SVGID_00000101810618681605334730000009558539454021642149_);fill:#FFFFFF;" points="1060,640 
				1060,585 1758,875 1758,923.8 			"/>
			<polygon style="clip-path:url(#SVGID_00000101810618681605334730000009558539454021642149_);fill:#FFFFFF;" points="
				1540.5,509.5 1540.5,573.5 1704,642 1694,575.8 			"/>
			<polygon style="clip-path:url(#SVGID_00000101810618681605334730000009558539454021642149_);fill:#476D87;" points="1453,836 
				1496,836 1496,1019.2 1453,991.9 			"/>
			<polygon style="clip-path:url(#SVGID_00000101810618681605334730000009558539454021642149_);fill:#FFFFFF;" points="1453,1128.1 
				1453,1289.6 1496,1299.4 1496,1128.1 			"/>
			<polygon style="clip-path:url(#SVGID_00000101810618681605334730000009558539454021642149_);fill:#FFFFFF;" points="1453,1414.2 
				1496,1423.9 1496,1492 1453,1523.2 			"/>
			<polygon style="clip-path:url(#SVGID_00000101810618681605334730000009558539454021642149_);fill:#FFFFFF;" points="1060,892.7 
				1060,951.1 1704,1176.8 1729.2,1128.1 			"/>
			<polygon style="clip-path:url(#SVGID_00000101810618681605334730000009558539454021642149_);fill:#FFFFFF;" points="1060,1213.8 
				1060,1270.2 1571.6,1414.2 1601,1373 			"/>
			
				<rect x="1005.3" y="267.4" style="clip-path:url(#SVGID_00000101810618681605334730000009558539454021642149_);fill:#FFFFFF;" width="26.6" height="265.3"/>
			
				<rect x="1005.3" y="565.8" style="clip-path:url(#SVGID_00000101810618681605334730000009558539454021642149_);fill:#FFFFFF;" width="26.6" height="270.2"/>
			
				<rect x="1005.3" y="871.3" style="clip-path:url(#SVGID_00000101810618681605334730000009558539454021642149_);fill:#476D87;" width="26.6" height="288"/>
			
				<rect x="1005.3" y="1188.5" style="clip-path:url(#SVGID_00000101810618681605334730000009558539454021642149_);fill:#476D87;" width="26.6" height="474.5"/>
			<polygon style="clip-path:url(#SVGID_00000101810618681605334730000009558539454021642149_);fill:#476D87;" points="1060,640 
				1060,584.7 1496,766 1496,817 			"/>
			<polygon style="clip-path:url(#SVGID_00000101810618681605334730000009558539454021642149_);fill:#476D87;" points="1060,892.5 
				1060,951 1496,1104 1496,1046 			"/>
		</g>
	</g>
	<g id="_x3C_Зеркальный_повтор_x3E__00000147908209777305881900000001297553565873895826_">
		<g>
			<defs>
				<rect id="SVGID_00000072239056628537373390000012611780726522037156_" x="252.6" y="267.4" width="752.7" height="1395.6"/>
			</defs>
			<clipPath id="SVGID_00000147921564892057362280000009055834668738480810_">
				<use xlink:href="#SVGID_00000072239056628537373390000012611780726522037156_"  style="overflow:visible;"/>
			</clipPath>
			<path style="clip-path:url(#SVGID_00000147921564892057362280000009055834668738480810_);fill:#476D87;" d="M948.6,286v57.9
				L557.6,525v188.6l-41,19.4c-0.7-81.3-1.3-162.7-2-244C659.3,421.3,804,353.7,948.6,286z"/>
			<path style="clip-path:url(#SVGID_00000147921564892057362280000009055834668738480810_);fill:#FFFFFF;" d="M946.6,585"/>
			<polygon style="clip-path:url(#SVGID_00000147921564892057362280000009055834668738480810_);fill:#FFFFFF;" points="950.6,640 
				950.6,585 252.6,875 252.6,923.8 			"/>
			<polygon style="clip-path:url(#SVGID_00000147921564892057362280000009055834668738480810_);fill:#FFFFFF;" points="470.2,509.5 
				470.2,573.5 306.6,642 316.6,575.8 			"/>
			<polygon style="clip-path:url(#SVGID_00000147921564892057362280000009055834668738480810_);fill:#476D87;" points="557.6,836 
				514.6,836 514.6,1019.2 557.6,991.9 			"/>
			<polygon style="clip-path:url(#SVGID_00000147921564892057362280000009055834668738480810_);fill:#FFFFFF;" points="
				557.6,1128.1 557.6,1289.6 514.6,1299.4 514.6,1128.1 			"/>
			<polygon style="clip-path:url(#SVGID_00000147921564892057362280000009055834668738480810_);fill:#FFFFFF;" points="
				557.6,1414.2 514.6,1423.9 514.6,1492 557.6,1523.2 			"/>
			<polygon style="clip-path:url(#SVGID_00000147921564892057362280000009055834668738480810_);fill:#FFFFFF;" points="950.6,892.7 
				950.6,951.1 306.6,1176.8 281.4,1128.1 			"/>
			<polygon style="clip-path:url(#SVGID_00000147921564892057362280000009055834668738480810_);fill:#FFFFFF;" points="
				950.6,1213.8 950.6,1270.2 439.1,1414.2 409.6,1373 			"/>
			
				<rect x="978.7" y="267.4" style="clip-path:url(#SVGID_00000147921564892057362280000009055834668738480810_);fill:#FFFFFF;" width="26.6" height="265.3"/>
			
				<rect x="978.7" y="565.8" style="clip-path:url(#SVGID_00000147921564892057362280000009055834668738480810_);fill:#FFFFFF;" width="26.6" height="270.2"/>
			
				<rect x="978.7" y="871.3" style="clip-path:url(#SVGID_00000147921564892057362280000009055834668738480810_);fill:#476D87;" width="26.6" height="288"/>
			
				<rect x="978.7" y="1188.5" style="clip-path:url(#SVGID_00000147921564892057362280000009055834668738480810_);fill:#476D87;" width="26.6" height="474.5"/>
			<polygon style="clip-path:url(#SVGID_00000147921564892057362280000009055834668738480810_);fill:#476D87;" points="950.6,640 
				950.6,584.7 514.6,766 514.6,817 			"/>
			<polygon style="clip-path:url(#SVGID_00000147921564892057362280000009055834668738480810_);fill:#476D87;" points="950.6,892.5 
				950.6,951 514.6,1104 514.6,1046 			"/>
		</g>
	</g>
</g>
<circle class="st7" cx="1013" cy="907.5" r="795.5"/>
<g>
	<path class="st8" d="M407.7,1884.4v-101.7l20.3-20.3h132.2l20.3,20.3v101.7l-20.3,20.3H428L407.7,1884.4z M430.5,1782.7v101.7
		h127.1v-101.7H430.5z M505.5,1922.5h-22.9v-178h22.9V1922.5z"/>
	<path class="st8" d="M750.9,1744.6v178H728v-157.6h-63.3l-40.4,157.6h-23.4l46.3-178H750.9z"/>
	<path class="st8" d="M771.2,1922.5l46.3-178H880l46.3,178h-23.4l-11.7-45.8h-84.9l-11.7,45.8H771.2z M811.4,1856.9h74.7l-23.6-92.5
		H835L811.4,1856.9z"/>
	<path class="st8" d="M946.6,1922.5v-178h111.9v20.3h-89v157.6H946.6z"/>
	<path class="st8" d="M1076.3,1922.5v-178h29l54.9,96.1l54.9-96.1h29v178h-22.4v-150l-53.9,94.1h-15.3l-53.9-94.1v150H1076.3z"/>
	<path class="st8" d="M1264.4,1922.5l46.3-178h62.5l46.3,178h-23.4l-11.7-45.8h-84.9l-11.7,45.8H1264.4z M1304.6,1856.9h74.7
		l-23.6-92.5h-27.5L1304.6,1856.9z"/>
	<path class="st8" d="M1439.8,1922.5v-178h22.9v76.3h94.1v-76.3h22.9v178h-22.9v-81.4h-94.1v81.4H1439.8z"/>
</g>
<circle class="st9" cx="1013" cy="907.5" r="751.5"/>
</svg>
