<svg width="200" height="200" viewBox="0 0 200 200" fill="none" xmlns="http://www.w3.org/2000/svg">
<circle cx="100" cy="100" r="100" fill="#252525"/>
<g clip-path="url(#clip0_1346_41)">
<path d="M96.2199 33H107.761C110.088 33.3568 111.597 34.4757 112.288 36.3565C112.597 37.2003 112.741 38.465 112.718 40.1508C112.66 44.2939 112.655 48.5338 112.702 52.8703C112.713 53.9566 112.628 54.854 112.449 55.5624C111.866 57.8616 109.601 59.4015 107.268 59.3408C104.328 59.267 102.153 56.8992 102.145 53.9646C102.134 50.5843 102.132 47.1882 102.139 43.7763C102.139 43.718 102.116 43.662 102.075 43.6206C102.033 43.5791 101.977 43.5555 101.918 43.5548C100.202 43.5372 98.52 43.539 96.8712 43.5601C93.8917 43.6022 91.603 45.9278 91.6004 48.9021C91.6004 49.8935 91.5872 50.8813 91.5608 51.8657C91.3815 58.4628 85.8576 63.7046 79.3133 63.7995C75.984 63.847 73.0783 62.7018 70.5963 60.3639C68.806 58.6764 67.5509 56.8491 64.7823 56.8491C63.3321 56.8491 62.0507 57.4072 60.938 58.5234C59.7181 59.7434 58.557 60.9062 57.4549 62.0118C55.2849 64.1845 55.298 67.512 57.4813 69.6583C58.2002 70.3649 58.8963 71.0821 59.5695 71.8099C61.5814 73.9825 62.7468 76.846 62.7969 79.7859C62.8944 85.4813 59.3454 90.4198 53.8927 92.0783C51.9389 92.6742 49.8611 92.5819 47.823 92.6083C44.883 92.6452 42.6049 94.9181 42.5627 97.8422C42.5346 99.6123 42.5337 101.368 42.5601 103.11C42.5943 105.468 44.1105 107.601 46.3938 108.186C47.1937 108.392 48.113 108.47 49.1519 108.421C52.6982 108.252 56.0073 109.175 58.6757 111.601C60.5548 113.307 61.7993 115.39 62.4093 117.847C63.3251 121.538 62.6756 124.954 60.4607 128.093C59.9158 128.865 59.1784 129.681 58.2485 130.543C57.454 131.278 56.8599 131.993 56.4661 132.689C55.2928 134.762 55.799 137.351 57.476 139.012C58.5166 140.042 59.5581 141.091 60.6005 142.158C61.2122 142.783 61.8134 143.254 62.404 143.568C64.487 144.683 67.0024 144.188 68.6504 142.521C69.3412 141.824 70.0514 141.134 70.7809 140.454C74.823 136.673 80.8505 136.193 85.5201 138.98C88.2553 140.613 90.1019 142.965 91.0599 146.036C91.6716 147.998 91.5978 150.12 91.6057 152.161C91.6162 155.172 93.9998 157.448 97.0136 157.45C98.5341 157.45 100.19 157.453 101.981 157.458C102.083 157.458 102.134 157.407 102.134 157.305C102.136 153.909 102.137 150.523 102.137 147.146C102.137 145.517 102.669 144.184 103.735 143.149C105.847 141.098 109.145 141.158 111.207 143.275C112.204 144.299 112.698 145.598 112.689 147.173C112.663 151.542 112.67 156.235 112.71 161.25C112.722 162.702 112.585 163.823 112.299 164.614C111.599 166.532 110.075 167.661 107.727 168H96.1883C90.769 167.606 86.5854 165.224 83.6375 160.854C82.2682 158.822 81.4358 156.449 81.1405 153.733C81.0333 152.743 81.0069 151.527 81.0614 150.083C81.1063 148.931 80.6817 148.04 79.5031 147.79C78.8369 147.647 78.2498 147.835 77.7418 148.354C76.463 149.667 75.1552 151.03 73.6312 152.035C68.4105 155.478 61.9294 155.592 56.5241 152.377C55.4923 151.764 54.362 150.839 53.1333 149.604C52.098 148.563 51.0441 147.5 49.9719 146.416C44.1816 140.565 43.6675 131.539 48.9014 125.13C49.6238 124.242 50.4632 123.367 51.4194 122.503C51.8097 122.15 52.0654 121.77 52.1867 121.364C52.5374 120.199 51.6172 118.952 50.3858 118.957C48.4927 118.965 46.4861 119.026 44.7143 118.643C37.4844 117.082 32.4166 111.176 32 103.772V97.183C32.501 88.8062 39.1271 82.1722 47.6463 82.0562C48.6166 82.0421 49.5254 82.0359 50.3727 82.0377C52.018 82.0403 52.8802 80.047 51.7279 78.8552C51.1742 78.2821 50.5985 77.6959 50.0009 77.0965C43.7202 70.7868 43.7123 60.9334 49.9561 54.5921C51.1619 53.3669 52.3634 52.1654 53.5605 50.9877C59.0369 45.5982 67.1527 44.736 73.5732 48.9231C75.1183 49.933 76.4524 51.3278 77.7603 52.6594C78.328 53.2359 78.996 53.3959 79.7642 53.1393C80.8294 52.7833 81.0377 52.0266 81.043 50.9244C81.0447 50.1844 81.0491 49.461 81.0562 48.7544C81.0983 44.7281 82.5591 41.0341 85.2802 38.0836C88.1208 35.0092 91.7674 33.3146 96.2199 33Z" fill="#45FFA6"/>
<path d="M167 56.6857V57.3343C166.819 59.7179 165.978 61.7025 164.477 63.288C162.301 65.5872 159.243 66.5813 156.105 66.046C156.057 66.0379 156.008 66.0415 155.961 66.0567C155.915 66.0718 155.873 66.098 155.839 66.133C151.704 70.2657 147.483 74.4835 143.175 78.7867C142.06 79.9011 140.725 80.4583 139.169 80.4583C126.107 80.4619 112.994 80.4627 99.8296 80.461C94.9886 80.4592 90.7118 81.9287 86.9993 84.8696C82.2058 88.6664 79.4715 94.4962 79.4847 100.555C79.511 111.524 88.4126 120.478 99.4235 120.515C112.619 120.558 125.838 120.56 139.08 120.523C140.604 120.518 141.999 121.072 143.103 122.158C147.315 126.299 151.526 130.446 155.736 134.598C155.808 134.67 155.896 134.702 156 134.693C156.814 134.627 157.595 134.474 158.412 134.559C161.478 134.875 163.829 136.246 165.465 138.672C166.369 140.01 166.88 141.597 167 143.434V144.08C166.873 145.945 166.362 147.522 165.465 148.813C163.646 151.427 161.144 152.802 157.959 152.939C155.609 153.039 153.081 152.032 151.364 150.339C149.257 148.258 148.343 145.657 148.622 142.537C148.625 142.496 148.62 142.454 148.606 142.416C148.592 142.377 148.569 142.342 148.54 142.313L137.282 131.21C137.204 131.134 137.1 131.091 136.991 131.091C124.871 131.07 113.207 131.074 101.997 131.102C99.7452 131.109 97.9918 131.053 96.7367 130.933C88.9268 130.192 81.8076 126.609 76.6027 120.724C72.3488 115.914 69.8483 110.23 69.1013 103.672C68.0729 94.6571 71.4216 85.4496 77.7075 79.1162C83.0337 73.7514 89.4207 70.7306 96.8685 70.0538C98.0885 69.9431 99.8428 69.8904 102.131 69.8956C113.747 69.922 125.386 69.9255 137.047 69.9062C137.075 69.9062 137.103 69.9006 137.129 69.8897C137.155 69.8788 137.178 69.8629 137.197 69.8429L148.543 58.4971C148.619 58.4215 148.65 58.3301 148.638 58.2229C148.469 56.7375 148.617 55.3216 149.081 53.9751C150.668 49.3609 155.63 46.8112 160.308 48.1559C162.955 48.9188 164.927 50.6344 166.222 53.3028C166.628 54.1412 166.887 55.2689 167 56.6857Z" fill="#45FFA6"/>
<path d="M167 100.191V100.843C166.887 102.165 166.646 103.234 166.275 104.052C164.962 106.961 162.801 108.762 159.794 109.454C156.879 110.124 154.24 109.485 151.876 107.537C151.355 107.108 150.856 106.575 150.378 105.937C150.339 105.886 150.29 105.845 150.232 105.817C150.175 105.788 150.112 105.773 150.049 105.773H109.319C109.274 105.773 109.23 105.783 109.19 105.801C109.149 105.819 109.114 105.846 109.084 105.879C108.541 106.477 108.059 107.108 107.415 107.619C105.329 109.289 103.016 109.959 100.476 109.628C96.6286 109.127 93.5568 106.377 92.663 102.625C92.0644 100.12 92.5549 97.3913 94.0314 95.2845C96.5548 91.6854 101.119 90.3301 105.211 92.0124C105.695 92.211 106.137 92.4597 106.54 92.7586C107.054 93.1409 107.621 93.452 108.04 93.9398C108.387 94.3424 108.736 94.7361 109.087 95.1211C109.15 95.1914 109.229 95.2265 109.324 95.2265H150.049C150.111 95.2265 150.173 95.2119 150.229 95.184C150.285 95.156 150.333 95.1155 150.37 95.0657C150.901 94.352 151.507 93.7368 152.187 93.22C153.108 92.5186 153.914 92.0572 154.605 91.8357C157.588 90.883 160.306 91.188 162.76 92.7507C165.346 94.3977 166.759 96.878 167 100.191Z" fill="#45FFA6"/>
</g>
<defs>
<clipPath id="clip0_1346_41">
<rect width="135" height="135" fill="white" transform="translate(32 33)"/>
</clipPath>
</defs>
</svg>
