<?xml version="1.0" encoding="UTF-8"?>
<svg id="_Слой_1" data-name="Слой 1" xmlns="http://www.w3.org/2000/svg" xmlns:xlink="http://www.w3.org/1999/xlink" viewBox="0 0 1629 1829.54">
  <defs>
    <style>
      .cls-1 {
        stroke: #fff;
      }

      .cls-1, .cls-2 {
        stroke-miterlimit: 10;
        stroke-width: 38px;
      }

      .cls-1, .cls-2, .cls-3 {
        fill: none;
      }

      .cls-4 {
        fill: #476d87;
      }

      .cls-4, .cls-5, .cls-3, .cls-6 {
        stroke-width: 0px;
      }

      .cls-2 {
        stroke: #1c2228;
      }

      .cls-7 {
        clip-path: url(#clippath-2);
      }

      .cls-5 {
        fill: #1b2128;
      }

      .cls-8 {
        clip-path: url(#clippath-1);
      }

      .cls-6 {
        fill: #fff;
      }

      .cls-9 {
        clip-path: url(#clippath);
      }

      .cls-10 {
        clip-path: url(#clippath-3);
      }
    </style>
    <clipPath id="clippath">
      <rect class="cls-3" x="66.96" y="128" width="739.54" height="1420"/>
    </clipPath>
    <clipPath id="clippath-1">
      <rect class="cls-3" x="806.5" y="128" width="739.54" height="1420"/>
    </clipPath>
    <clipPath id="clippath-2">
      <rect class="cls-3" x="806.82" y="174.38" width="752.68" height="1395.62"/>
    </clipPath>
    <clipPath id="clippath-3">
      <rect class="cls-3" x="54.15" y="174.38" width="752.68" height="1395.62"/>
    </clipPath>
  </defs>
  <g>
    <g id="_Зеркальный_повтор_" data-name="&amp;lt;Зеркальный повтор&amp;gt;">
      <g class="cls-9">
        <path class="cls-5" d="M170.5,426.96L806.5,128l8,1418-54,2V183L92.5,551l187,52,2,45-214.54,88.94v89.77l216.41,44.34v50.96l-197.61,76.7,38.04,112.4,163.7,3.9v95l-93.51,28.53c53.26,80.48,127.64,151.98,223.68,214.26l-2.17-154.8,142,27,2.1,196.65h39.31v-206.65l161.59-49v-202l-351,101v-142l152,22-2,111,41-4v-170l160-45v-177l-351,125v-156l166,45-4.14,97.04h41.14v-173.04l148-39v-203l-345,145v-142l162,52-2,47,35-12v-126l150-46v-191L146,470.87l24.51-43.91Z"/>
      </g>
    </g>
    <g id="_Зеркальный_повтор_-2" data-name="&amp;lt;Зеркальный повтор&amp;gt;">
      <g class="cls-8">
        <path class="cls-5" d="M1442.5,426.96L806.5,128l-8,1418,54,2V183s668,368,668,368l-187,52-2,45,214.54,88.94v89.77l-216.41,44.34v50.96l197.61,76.7-38.04,112.4-163.7,3.9v95l93.51,28.53c-53.26,80.48-127.64,151.98-223.68,214.26l2.17-154.8-142,27-2.1,196.65h-39.31v-206.65s-161.59-49-161.59-49v-202s351,101,351,101v-142s-152,22-152,22l2,111-41-4v-170s-160-45-160-45v-177s351,125,351,125v-156s-166,45-166,45l4.14,97.04h-41.14v-173.04s-148-39-148-39v-203s345,145,345,145v-142s-162,52-162,52l2,47-35-12v-126l-150-46v-191s614.5,287.87,614.5,287.87l-24.51-43.91Z"/>
      </g>
    </g>
  </g>
  <g>
    <g id="_Зеркальный_повтор_-3" data-name="&amp;lt;Зеркальный повтор&amp;gt;">
      <g class="cls-7">
        <path class="cls-4" d="M863.5,193v57.92l391,181.08v188.65l41,19.35c.67-81.33,1.33-162.67,2-244-144.67-67.67-289.33-135.33-434-203Z"/>
        <polygon class="cls-6" points="861.5 547 861.5 492 1559.5 782 1559.5 830.81 861.5 547"/>
        <polygon class="cls-6" points="1341.96 416.5 1341.96 480.54 1505.5 549 1495.5 482.75 1341.96 416.5"/>
        <polygon class="cls-4" points="1254.5 743 1297.5 743 1297.5 926.16 1254.5 898.92 1254.5 743"/>
        <polygon class="cls-6" points="1254.5 1035.14 1254.5 1196.65 1297.5 1206.38 1297.5 1035.14 1254.5 1035.14"/>
        <polygon class="cls-6" points="1254.5 1321.19 1297.5 1330.92 1297.5 1399.03 1254.5 1430.16 1254.5 1321.19"/>
        <polygon class="cls-6" points="861.5 799.68 861.5 858.05 1505.5 1083.78 1530.72 1035.14 861.5 799.68"/>
        <polygon class="cls-6" points="861.5 1120.76 861.5 1177.19 1373.09 1321.19 1402.5 1280 861.5 1120.76"/>
        <rect class="cls-6" x="806.82" y="174.38" width="26.59" height="265.3"/>
        <rect class="cls-6" x="806.82" y="472.76" width="26.59" height="270.24"/>
        <rect class="cls-4" x="806.82" y="778.27" width="26.59" height="288"/>
        <rect class="cls-4" x="806.82" y="1095.46" width="26.59" height="474.54"/>
        <polygon class="cls-4" points="861.5 547 861.5 491.68 1297.5 673 1297.5 724 861.5 547"/>
        <polygon class="cls-4" points="861.5 799.49 861.5 858 1297.5 1011 1297.5 953 861.5 799.49"/>
      </g>
    </g>
    <g id="_Зеркальный_повтор_-4" data-name="&amp;lt;Зеркальный повтор&amp;gt;">
      <g class="cls-10">
        <path class="cls-4" d="M750.15,193v57.92s-391,181.08-391,181.08v188.65s-41,19.35-41,19.35c-.67-81.33-1.33-162.67-2-244,144.67-67.67,289.33-135.33,434-203Z"/>
        <polygon class="cls-6" points="752.15 547 752.15 492 54.15 782 54.15 830.81 752.15 547"/>
        <polygon class="cls-6" points="271.69 416.5 271.69 480.54 108.15 549 118.15 482.75 271.69 416.5"/>
        <polygon class="cls-4" points="359.15 743 316.15 743 316.15 926.16 359.15 898.92 359.15 743"/>
        <polygon class="cls-6" points="359.15 1035.14 359.15 1196.65 316.15 1206.38 316.15 1035.14 359.15 1035.14"/>
        <polygon class="cls-6" points="359.15 1321.19 316.15 1330.92 316.15 1399.03 359.15 1430.16 359.15 1321.19"/>
        <polygon class="cls-6" points="752.15 799.68 752.15 858.05 108.15 1083.78 82.93 1035.14 752.15 799.68"/>
        <polygon class="cls-6" points="752.15 1120.76 752.15 1177.19 240.55 1321.19 211.15 1280 752.15 1120.76"/>
        <rect class="cls-6" x="780.23" y="174.38" width="26.59" height="265.3"/>
        <rect class="cls-6" x="780.23" y="472.76" width="26.59" height="270.24"/>
        <rect class="cls-4" x="780.23" y="778.27" width="26.59" height="288"/>
        <rect class="cls-4" x="780.23" y="1095.46" width="26.59" height="474.54"/>
        <polygon class="cls-4" points="752.15 547 752.15 491.68 316.15 673 316.15 724 752.15 547"/>
        <polygon class="cls-4" points="752.15 799.49 752.15 858 316.15 1011 316.15 953 752.15 799.49"/>
      </g>
    </g>
  </g>
  <circle class="cls-1" cx="814.5" cy="814.5" r="795.5"/>
  <circle class="cls-2" cx="814.5" cy="814.5" r="751.5"/>
</svg>